<?xml version="1.0" standalone="no"?>
<!DOCTYPE svg PUBLIC "-//W3C//DTD SVG 20010904//EN"
 "http://www.w3.org/TR/2001/REC-SVG-20010904/DTD/svg10.dtd">
<svg version="1.0" xmlns="http://www.w3.org/2000/svg"
 width="1024.000000pt" height="1024.000000pt" viewBox="0 0 1024.000000 1024.000000"
 preserveAspectRatio="xMidYMid meet">
<metadata>
Created by potrace 1.11, written by Peter Selinger 2001-2013
</metadata>
<g transform="translate(0.000000,1024.000000) scale(0.100000,-0.100000)"
fill="#000000" stroke="none">
<path d="M0 5120 l0 -5120 5120 0 5120 0 0 5120 0 5120 -5120 0 -5120 0 0
-5120z m5635 3180 c544 -33 986 -102 1418 -220 270 -74 580 -190 682 -255 101
-64 172 -162 212 -290 16 -53 18 -90 15 -300 -1 -132 -6 -292 -11 -355 l-8
-115 -2 98 c-1 79 -4 97 -16 97 -13 0 -15 29 -17 198 l-1 197 -8 -260 c-40
-1384 -379 -2537 -1029 -3500 -200 -295 -382 -515 -679 -821 l-196 -200 220
220 c225 225 369 390 523 597 103 138 135 178 127 162 -4 -8 1 -13 13 -13 22
0 78 80 215 305 89 147 109 173 52 70 -184 -337 -472 -724 -799 -1079 -281
-303 -886 -811 -1081 -907 -83 -40 -162 -48 -241 -23 -151 47 -658 449 -1013
804 -353 352 -686 783 -900 1163 -47 82 -31 70 19 -15 24 -40 79 -128 123
-196 67 -103 84 -123 102 -120 18 2 43 -24 135 -147 171 -227 304 -379 534
-610 l209 -210 -199 205 c-294 303 -492 546 -703 860 -57 85 -108 154 -113
152 -5 -1 -7 2 -4 7 4 5 -26 65 -65 133 -98 170 -265 512 -338 694 -229 571
-374 1183 -440 1864 -29 300 -33 366 -41 680 l-7 285 -1 -247 c-2 -213 -4
-248 -17 -248 -12 0 -15 -17 -17 -87 l-1 -88 -7 100 c-14 190 -11 585 5 644
23 89 65 163 130 227 69 70 128 103 326 180 378 147 839 258 1329 318 176 22
270 30 560 49 116 8 863 6 1005 -3z m-3338 -1612 c-2 -18 -4 -4 -4 32 0 36 2
50 4 33 2 -18 2 -48 0 -65z m5640 -20 c-2 -18 -4 -6 -4 27 0 33 2 48 4 33 2
-15 2 -42 0 -60z m-5630 -105 c-3 -10 -5 -2 -5 17 0 19 2 27 5 18 2 -10 2 -26
0 -35z m5620 -15 c-2 -13 -4 -5 -4 17 -1 22 1 32 4 23 2 -10 2 -28 0 -40z
m-5610 -90 c-3 -8 -6 -5 -6 6 -1 11 2 17 5 13 3 -3 4 -12 1 -19z m5600 -20
c-3 -7 -5 -2 -5 12 0 14 2 19 5 13 2 -7 2 -19 0 -25z m-554 -2103 c-3 -9 -8
-14 -10 -11 -3 3 -2 9 2 15 9 16 15 13 8 -4z m-4368 -235 c9 -16 13 -30 11
-30 -3 0 -12 14 -21 30 -9 17 -13 30 -11 30 3 0 12 -13 21 -30z m4220 -60 c-9
-16 -18 -30 -21 -30 -2 0 2 14 11 30 9 17 18 30 21 30 2 0 -2 -13 -11 -30z
m-4150 -70 c9 -16 13 -30 11 -30 -3 0 -12 14 -21 30 -9 17 -13 30 -11 30 3 0
12 -13 21 -30z m304 -414 c-3 -3 -11 5 -18 17 -13 21 -12 21 5 5 10 -10 16
-20 13 -22z"/>
<path d="M4739 8100 c-719 -30 -1343 -143 -1874 -337 -264 -97 -331 -144 -374
-257 -19 -50 -21 -77 -21 -244 1 -739 123 -1558 327 -2187 308 -950 811 -1726
1572 -2423 202 -184 582 -482 678 -531 84 -42 108 -32 343 145 1116 840 1819
1873 2144 3149 148 584 236 1322 224 1885 -3 157 -6 180 -26 226 -45 100 -108
140 -385 243 -424 159 -966 267 -1586 316 -241 19 -748 26 -1022 15z m184
-209 c40 -16 53 -31 87 -102 26 -55 32 -85 44 -204 5 -50 -12 -177 -30 -225
-38 -101 -92 -139 -189 -137 -71 2 -101 21 -138 87 -32 59 -47 131 -47 234 0
195 57 320 162 351 46 13 69 12 111 -4z m484 -7 c17 -7 34 -10 37 -6 3 3 6 1
6 -5 0 -5 11 -15 24 -21 30 -13 56 -87 56 -156 0 -63 -30 -126 -70 -150 -23
-13 -29 -23 -25 -34 15 -37 95 -276 92 -277 -1 -2 -25 -5 -52 -7 l-51 -5 -17
57 c-9 32 -22 70 -28 86 -7 16 -13 32 -14 37 -2 4 -4 9 -5 12 -1 3 -4 10 -5
15 -1 6 -4 12 -5 15 -1 3 -3 8 -4 13 -1 4 -5 13 -10 20 -4 7 -5 19 -2 27 4 12
-4 15 -39 15 l-44 0 -3 -142 -3 -143 -47 -1 -48 -2 0 335 0 335 113 -3 c62 -1
126 -7 144 -15z m443 -16 c0 -4 7 -5 15 -2 8 4 15 1 15 -5 0 -6 3 -10 8 -9 20
4 45 -19 66 -61 41 -82 41 -88 1 -95 -20 -4 -42 -9 -49 -12 -8 -3 -20 13 -32
42 -22 54 -52 71 -92 52 -44 -21 -66 -80 -70 -190 -6 -151 3 -202 45 -249 29
-32 42 -39 74 -39 44 0 57 17 64 77 2 21 7 46 10 56 6 14 1 17 -26 18 -19 1
-40 1 -46 0 -9 -1 -13 14 -13 50 l0 52 61 -7 c34 -3 75 -6 90 -6 l29 0 0 -92
c0 -51 -5 -111 -11 -133 -26 -92 -119 -135 -224 -101 -78 24 -111 60 -139 155
-23 79 -30 186 -16 274 13 88 29 132 59 164 12 12 21 27 21 33 0 6 4 9 8 6 4
-2 18 3 31 13 23 17 121 25 121 9z m-1357 -20 c50 -26 67 -61 67 -133 0 -63
-19 -109 -58 -142 l-27 -23 26 0 c29 0 52 -22 68 -62 17 -46 -2 -162 -34 -204
-44 -57 -67 -66 -193 -78 -64 -7 -123 -15 -129 -19 -10 -7 -13 61 -13 327 l0
336 23 5 c73 16 234 13 270 -7z m-407 -24 c-3 -9 -6 -157 -6 -329 l0 -314 -42
-9 c-24 -4 -45 -5 -48 -1 -8 11 -4 323 4 379 5 37 4 41 -5 20 -18 -43 -129
-417 -129 -435 0 -22 -13 -12 -17 13 -1 9 -23 78 -49 152 -25 74 -52 160 -59
190 -12 52 -13 43 -17 -155 l-3 -209 -30 -7 c-16 -4 -37 -9 -45 -13 -13 -5
-15 34 -12 327 l3 334 54 10 c39 7 54 6 53 -1 -1 -6 16 -69 39 -141 23 -71 51
-159 62 -195 18 -60 19 -63 25 -35 4 17 11 48 16 70 6 22 12 49 15 59 6 24 25
87 32 106 4 8 7 18 8 23 2 4 3 8 5 10 1 1 4 15 6 30 3 16 13 49 22 75 16 43
21 48 57 53 66 10 68 10 61 -7z m2100 10 l29 -5 -3 -124 c-4 -142 -6 -138 92
-150 33 -4 65 -9 73 -12 10 -4 13 20 13 127 l0 132 53 -7 c28 -4 52 -8 52 -9
0 0 -1 -149 -3 -330 l-3 -328 -22 6 c-12 3 -35 6 -50 6 l-28 0 3 154 3 154
-73 11 c-124 19 -112 33 -112 -137 l0 -147 -50 0 -50 0 0 333 0 332 24 0 c13
0 36 -3 52 -6z m497 -85 l42 -10 -3 -326 -3 -325 -31 6 c-17 3 -39 6 -49 6
-18 0 -19 14 -19 330 0 225 3 330 11 330 5 0 29 -5 52 -11z m-3225 -327 c40
-158 75 -297 78 -309 5 -18 1 -23 -22 -28 -16 -4 -40 -11 -53 -16 -13 -5 -25
-8 -26 -7 -2 2 -9 39 -16 83 -7 44 -14 82 -15 84 -2 2 -35 -4 -73 -14 l-70
-17 -11 -56 c-26 -135 -21 -126 -75 -143 -28 -9 -51 -15 -53 -14 -2 2 26 128
62 281 36 154 72 311 81 351 16 69 17 72 53 81 20 6 44 10 52 11 11 1 32 -67
88 -287z m3445 277 c32 -8 45 -17 54 -37 5 -15 34 -88 63 -162 29 -74 61 -150
72 -168 11 -18 24 -45 28 -60 5 -16 9 48 9 166 1 136 4 192 12 192 7 0 29 -5
50 -11 l38 -12 1 -328 c0 -189 -3 -329 -9 -329 -23 0 -82 32 -87 48 -3 9 -11
28 -16 42 -6 14 -14 34 -18 45 -4 11 -13 34 -20 50 -13 30 -24 59 -43 105 -5
14 -13 33 -18 42 -5 10 -9 25 -9 33 0 8 -4 15 -10 15 -5 0 -10 11 -10 25 0 14
-4 25 -9 25 -5 0 -12 11 -15 25 -16 62 -21 11 -18 -171 l4 -197 -39 6 c-21 4
-44 7 -50 7 -10 0 -13 73 -13 330 0 182 3 330 6 330 3 0 24 -5 47 -11z m-4039
-386 c-5 -277 -1 -328 24 -318 46 19 142 53 165 59 26 6 27 5 27 -39 0 -25 -1
-45 -3 -45 -12 0 -284 -103 -292 -111 -5 -5 -11 -9 -15 -9 -5 0 -3 671 2 675
6 4 84 33 90 34 4 1 5 -110 2 -246z m4558 226 l37 -12 1 -330 0 -329 -27 6
c-16 4 -39 10 -53 12 l-25 6 3 335 c2 259 5 333 15 329 6 -2 29 -10 49 -17z
m-4817 -134 c16 -26 25 -54 22 -67 -4 -21 -4 -21 -6 3 0 14 -12 43 -26 63 -14
20 -25 39 -25 41 0 14 12 0 35 -40z m-38 -62 c-2 -16 -4 -3 -4 27 0 30 2 43 4
28 2 -16 2 -40 0 -55z m70 -135 c-2 -13 -4 -5 -4 17 -1 22 1 32 4 23 2 -10 2
-28 0 -40z m2854 -187 c141 -40 208 -69 189 -81 -16 -10 -45 -7 -150 15 -36 8
-72 13 -80 11 -41 -8 -70 -19 -70 -27 0 -12 40 -32 80 -39 l35 -7 -30 -13
c-76 -32 -182 -24 -223 17 -21 21 -26 23 -33 10 -8 -13 -14 -13 -56 0 -27 8
-65 12 -86 10 -20 -3 -35 -2 -33 2 8 12 -98 -4 -121 -19 -12 -8 -27 -25 -33
-38 -34 -76 91 -99 605 -112 397 -9 423 -13 512 -73 26 -19 62 -53 78 -76 27
-39 30 -50 30 -124 0 -78 -2 -84 -35 -129 -19 -26 -42 -48 -50 -48 -8 0 -3 -7
13 -16 32 -17 30 -42 -6 -81 -25 -28 -48 -29 -72 -3 -14 15 -31 20 -73 20
l-54 0 65 -65 c84 -83 111 -139 111 -225 0 -95 -35 -150 -93 -150 -38 0 -81
55 -167 215 -91 170 -138 236 -184 260 -62 32 -64 7 -6 -89 55 -92 104 -219
142 -369 43 -171 86 -308 123 -390 79 -175 81 -177 195 -196 38 -7 91 -23 117
-37 27 -13 75 -34 106 -45 71 -26 101 -47 175 -116 82 -77 131 -97 222 -88
l71 6 -25 -21 c-38 -32 -91 -57 -135 -64 -99 -16 -246 43 -335 135 -51 52 -58
56 -92 52 l-37 -5 -3 48 c-3 46 -5 49 -33 52 -16 2 -42 15 -56 28 -23 22 -29
23 -51 13 -22 -10 -31 -8 -64 15 -21 14 -46 26 -56 26 -42 0 -66 -69 -30 -89
15 -9 13 -10 -10 -11 -32 0 -54 20 -63 59 -7 32 -29 55 -62 65 -25 8 -28 0
-14 -37 14 -37 3 -67 -24 -67 -47 0 -44 -65 5 -100 40 -28 170 -60 247 -60 34
0 63 -4 63 -8 0 -18 -57 -62 -99 -77 -55 -19 -172 -19 -237 0 -111 33 -194
119 -210 218 -7 42 -20 55 -37 38 -18 -18 -25 -13 -37 24 -6 19 -20 40 -30 45
-32 17 35 -130 86 -190 30 -35 44 -61 44 -80 0 -51 -29 -172 -72 -301 -26 -79
-39 -133 -34 -145 6 -16 13 -13 50 30 32 37 47 48 60 43 16 -6 17 -20 14 -130
l-3 -122 25 0 c37 0 71 87 67 175 -2 61 -4 66 -32 79 -46 21 -65 42 -65 70 0
32 50 141 75 161 16 13 19 12 39 -12 12 -15 33 -28 51 -30 40 -4 39 -29 -2
-49 l-32 -16 29 -21 c40 -30 45 -76 20 -203 -29 -153 -47 -207 -70 -214 -11
-3 -25 -3 -32 1 -6 4 -4 -3 5 -17 35 -49 18 -99 -41 -118 -50 -17 -103 -8
-139 24 -27 22 -28 27 -26 108 2 83 2 85 -38 148 -22 35 -49 84 -60 109 -12
25 -43 92 -70 150 -27 58 -49 115 -50 125 0 17 -2 16 -10 -5 -18 -44 -4 -106
39 -172 23 -35 54 -94 70 -133 16 -38 46 -97 66 -129 20 -33 36 -71 36 -85 0
-22 -3 -20 -20 16 -10 24 -33 63 -50 88 -17 25 -40 70 -50 99 -10 30 -39 85
-64 122 -26 37 -49 78 -52 91 -20 79 46 222 143 313 77 73 77 91 0 94 -53 2
-113 -25 -101 -46 4 -7 3 -8 -4 -4 -6 4 -24 -6 -40 -21 -15 -15 -20 -22 -10
-14 27 21 21 8 -9 -20 -14 -13 -23 -18 -18 -10 5 9 3 12 -6 9 -8 -3 -13 -10
-12 -15 2 -10 -8 -11 -87 -11 -85 -1 -109 2 -102 12 3 5 -2 6 -12 3 -10 -4
-15 -3 -11 3 7 12 -32 33 -47 24 -7 -4 -8 -3 -4 4 8 14 -30 25 -70 20 -28 -3
-36 -13 -66 -83 -9 -21 -21 -31 -41 -33 -15 -2 -27 1 -27 6 0 6 -8 8 -19 5
-10 -3 -22 1 -26 8 -6 8 -4 10 5 4 8 -5 11 -4 6 3 -4 6 -13 9 -20 6 -7 -3 -23
11 -37 30 -28 41 -34 43 -49 17 -17 -32 -11 -73 15 -120 14 -24 25 -59 25 -80
0 -77 -70 -151 -144 -151 -23 0 -46 -4 -53 -8 -22 -14 -32 -58 -22 -95 21 -76
67 -72 114 10 48 83 102 132 155 138 35 5 37 -3 10 -38 -12 -14 -26 -41 -32
-59 -6 -18 -31 -63 -55 -100 -29 -45 -57 -108 -84 -192 -24 -74 -57 -151 -80
-188 -72 -114 -92 -166 -97 -247 -6 -91 -22 -126 -67 -148 -39 -19 -43 -28
-19 -41 16 -9 15 -13 -2 -48 -22 -45 -72 -77 -125 -80 -20 -1 -42 -5 -48 -8
-15 -10 -14 13 3 61 13 38 13 39 -10 38 -16 0 -31 -11 -43 -32 -11 -17 -17
-34 -14 -37 4 -3 -1 -6 -10 -6 -13 0 -17 10 -17 44 0 46 28 98 80 148 16 15
31 40 35 56 3 16 32 60 63 97 96 114 100 120 107 198 11 113 23 158 61 220
l36 58 2 162 3 162 47 130 c41 112 49 145 56 240 11 160 43 246 150 405 94
140 109 176 125 307 12 93 21 131 49 189 49 103 100 150 245 224 131 67 193
109 321 219 46 40 96 79 113 87 42 22 105 21 152 -3 66 -33 275 -101 346 -113
37 -5 84 -16 106 -24 37 -13 43 -13 71 4 107 66 92 219 -29 281 -74 37 -161
47 -499 53 -429 9 -550 27 -610 91 -29 31 -23 84 18 134 36 45 154 107 242
126 105 24 289 13 421 -24z m686 -1073 c44 -48 68 -187 44 -251 -6 -14 -28
-43 -50 -65 -23 -22 -41 -47 -41 -56 0 -23 44 -116 74 -155 31 -42 32 -45 6
-71 -13 -13 -33 -20 -59 -20 -59 0 -81 33 -81 121 0 37 5 80 11 96 6 15 12
100 13 188 3 212 27 273 83 213z m-1028 -882 c-2 -2 -15 -9 -29 -15 -24 -11
-24 -11 -6 3 16 13 49 24 35 12z m1041 -222 c0 -14 -5 -45 -11 -69 -9 -35 -8
-58 6 -117 13 -56 15 -95 10 -165 -6 -83 -5 -96 14 -127 28 -45 27 -74 -4 -88
-27 -12 -27 -28 2 -98 8 -19 10 -36 5 -38 -5 -1 -18 -9 -28 -17 -18 -13 -16
-14 22 -15 34 0 43 -4 52 -25 13 -29 14 -87 2 -125 -8 -24 -8 -24 -9 -3 -1 30
-37 49 -57 32 -9 -7 -14 -23 -11 -36 3 -14 -1 -23 -8 -23 -17 0 -85 76 -85 95
0 9 12 43 26 77 23 55 24 66 14 103 -10 37 -9 52 11 113 l22 70 -27 73 c-15
41 -40 98 -56 127 l-29 53 24 50 c13 28 34 91 47 141 l23 89 22 -26 c13 -14
23 -37 23 -51z m455 8 l-39 -37 35 41 c19 22 36 39 39 37 2 -2 -13 -20 -35
-41z m-238 -48 c-3 -3 -12 -4 -19 -1 -8 3 -5 6 6 6 11 1 17 -2 13 -5z m160 0
c-3 -3 -12 -4 -19 -1 -8 3 -5 6 6 6 11 1 17 -2 13 -5z m-79 -11 c-10 -2 -26
-2 -35 0 -10 3 -2 5 17 5 19 0 27 -2 18 -5z m-741 -155 c-3 -8 -6 -5 -6 6 -1
11 2 17 5 13 3 -3 4 -12 1 -19z m-957 -270 c0 -6 -10 -32 -22 -56 -20 -41 -20
-46 -5 -57 26 -19 20 -40 -18 -69 -19 -15 -44 -45 -55 -67 -11 -21 -24 -39
-29 -39 -5 0 -12 -11 -15 -25 -8 -31 -45 -56 -88 -59 -72 -6 -98 -32 -66 -64
15 -15 74 -16 83 -2 9 15 25 12 25 -4 0 -19 -47 -56 -71 -56 -23 0 -25 -16 -4
-28 14 -7 13 -12 -6 -35 -22 -29 -97 -72 -107 -63 -3 3 -12 0 -20 -7 -16 -13
-17 -13 5 39 5 15 1 16 -31 10 -33 -6 -38 -4 -43 13 -3 12 -10 18 -15 14 -7
-4 -9 14 -6 52 4 50 9 62 33 79 15 12 46 39 69 61 23 22 59 49 80 59 68 36
107 92 141 206 24 80 38 98 82 103 74 7 83 7 83 -5z m237 -10 c-3 -8 -6 -5 -6
6 -1 11 2 17 5 13 3 -3 4 -12 1 -19z m16 -32 c40 15 34 -126 -7 -162 -14 -12
-31 -24 -38 -27 -11 -4 -11 -8 0 -26 17 -29 8 -55 -23 -69 -16 -8 -25 -20 -25
-35 0 -27 -17 -47 -41 -47 -10 0 -20 -6 -23 -12 -3 -7 -4 3 -1 23 4 28 2 38
-11 43 -9 3 -22 2 -29 -4 -6 -5 -15 -7 -18 -3 -4 3 -7 -5 -7 -18 -1 -22 -2
-22 -11 -6 -15 26 40 136 90 179 22 18 56 66 77 106 21 40 41 67 44 62 4 -6
14 -8 23 -4z"/>
<path d="M4834 7790 c-32 -13 -62 -61 -75 -121 -13 -60 -7 -229 9 -269 18 -43
60 -80 92 -80 60 0 90 82 90 244 0 111 -20 187 -57 215 -29 23 -29 23 -59 11z"/>
<path d="M5257 7804 c-9 -9 -9 -156 -1 -178 5 -12 21 -16 66 -16 76 0 108 27
108 91 0 52 -44 99 -94 99 -17 0 -40 3 -51 6 -11 3 -24 2 -28 -2z"/>
<path d="M4337 7773 c-30 -3 -37 -8 -33 -19 3 -9 6 -47 6 -86 l0 -69 53 2 c75
4 103 35 97 108 -1 13 -7 29 -13 35 -12 11 -66 38 -70 34 -1 -1 -19 -3 -40 -5z"/>
<path d="M4322 7503 c-16 -3 -22 -9 -18 -20 3 -8 6 -53 6 -99 l0 -85 58 2 c75
3 99 26 106 99 7 81 -53 122 -152 103z"/>
<path d="M3327 7500 c-8 -20 -37 -168 -37 -187 0 -12 8 -14 37 -8 21 4 41 9
44 11 4 2 0 34 -8 71 -25 114 -30 129 -36 113z"/>
<path d="M5364 6976 c-10 -8 -17 -17 -14 -19 3 -3 16 3 29 14 27 22 15 26 -15
5z"/>
<path d="M5243 6920 c15 -26 51 -40 97 -40 33 0 40 3 40 19 0 11 -5 23 -12 27
-8 5 -9 2 -5 -10 4 -9 3 -15 -2 -12 -5 3 -36 12 -69 20 -58 13 -60 13 -49 -4z"/>
<path d="M5440 6726 c14 -8 43 -15 65 -15 54 0 25 17 -42 25 -46 5 -47 5 -23
-10z"/>
<path d="M5370 6365 c0 -8 14 -21 30 -30 17 -9 30 -20 30 -25 0 -6 10 -10 23
-9 21 0 21 1 2 9 -11 4 -35 22 -52 39 -21 19 -33 25 -33 16z"/>
<path d="M5360 6011 c17 -34 32 -79 34 -99 2 -21 8 -48 15 -60 11 -20 8 -26
-18 -52 l-29 -30 26 -6 c93 -20 117 -38 110 -78 -7 -37 22 -43 49 -11 47 54
21 118 -113 281 -47 57 -90 106 -95 110 -6 3 4 -22 21 -55z"/>
<path d="M4701 5647 c-12 -15 -33 -146 -25 -159 3 -5 23 -17 45 -28 21 -11 39
-28 40 -38 1 -9 2 -28 2 -42 2 -18 12 -30 37 -42 35 -18 100 -25 100 -10 0 4
-20 26 -44 50 -36 34 -47 53 -56 98 -7 31 -22 76 -34 99 -13 23 -25 52 -29 64
-6 24 -20 27 -36 8z"/>
<path d="M5461 5322 c-48 -26 -51 -45 -4 -20 44 23 121 20 172 -6 35 -19 41
-8 10 20 -30 27 -133 31 -178 6z"/>
<path d="M5390 4214 c-15 -38 10 -77 42 -65 30 11 33 27 9 41 -12 6 -21 17
-21 25 0 26 -20 26 -30 -1z"/>
<path d="M4186 4191 c-5 -8 -18 -10 -37 -6 -28 6 -29 6 -29 -34 0 -64 32 -64
66 1 15 30 15 64 0 39z"/>
<path d="M4047 3813 c-13 -13 -21 -14 -41 -5 -28 12 -36 7 -36 -23 0 -55 60
-54 96 0 21 32 7 53 -19 28z"/>
<path d="M4889 4133 c-13 -16 -12 -17 4 -4 16 13 21 21 13 21 -2 0 -10 -8 -17
-17z"/>
<path d="M4860 4090 c-6 -11 -8 -20 -6 -20 3 0 10 9 16 20 6 11 8 20 6 20 -3
0 -10 -9 -16 -20z"/>
<path d="M7770 7715 c19 -19 36 -35 39 -35 3 0 -10 16 -29 35 -19 19 -36 35
-39 35 -3 0 10 -16 29 -35z"/>
<path d="M2449 7713 l-24 -28 28 24 c25 23 32 31 24 31 -2 0 -14 -12 -28 -27z"/>
<path d="M7891 7494 c0 -11 3 -14 6 -6 3 7 2 16 -1 19 -3 4 -6 -2 -5 -13z"/>
<path d="M2331 7484 c0 -11 3 -14 6 -6 3 7 2 16 -1 19 -3 4 -6 -2 -5 -13z"/>
<path d="M7903 7415 c0 -27 2 -38 4 -22 2 15 2 37 0 50 -2 12 -4 0 -4 -28z"/>
<path d="M4285 2530 c21 -22 41 -40 44 -40 3 0 -13 18 -34 40 -21 22 -41 40
-44 40 -3 0 13 -18 34 -40z"/>
<path d="M5924 2518 l-29 -33 33 29 c17 17 32 31 32 33 0 8 -8 1 -36 -29z"/>
<path d="M4365 2460 c10 -11 20 -20 23 -20 3 0 -3 9 -13 20 -10 11 -20 20 -23
20 -3 0 3 -9 13 -20z"/>
<path d="M5844 2448 l-19 -23 23 19 c12 11 22 21 22 23 0 8 -8 2 -26 -19z"/>
<path d="M4435 2400 c10 -11 20 -20 23 -20 3 0 -3 9 -13 20 -10 11 -20 20 -23
20 -3 0 3 -9 13 -20z"/>
<path d="M5779 2393 c-13 -16 -12 -17 4 -4 9 7 17 15 17 17 0 8 -8 3 -21 -13z"/>
</g>
</svg>
